<svg width="196" height="64" viewBox="0 0 196 64" fill="none" xmlns="http://www.w3.org/2000/svg">
<path d="M0 16C0 7.16344 7.16344 0 16 0H180C188.837 0 196 7.16344 196 16V48C196 56.8366 188.837 64 180 64H16C7.16345 64 0 56.8366 0 48V16Z" fill="black"/>
<path d="M72.7933 21.2204C72.8161 21.6789 72.7452 22.1372 72.5851 22.5675C72.4251 22.9977 72.1791 23.3909 71.8622 23.723C71.5071 24.0914 71.0782 24.3805 70.6036 24.5717C70.129 24.7628 69.6194 24.8516 69.1082 24.8322C68.5936 24.8368 68.0834 24.7386 67.6074 24.5431C67.1314 24.3477 66.6992 24.0591 66.3364 23.6943C65.9735 23.3295 65.6872 22.8958 65.4944 22.4188C65.3015 21.9418 65.2059 21.431 65.2133 20.9165C65.206 20.402 65.3016 19.8912 65.4945 19.4142C65.6873 18.9371 65.9736 18.5034 66.3365 18.1386C66.6993 17.7737 67.1314 17.4851 67.6074 17.2896C68.0834 17.0941 68.5936 16.9957 69.1082 17.0001C69.6372 16.9985 70.1609 17.1055 70.6469 17.3144C71.0983 17.4974 71.5001 17.7844 71.8196 18.1521L71.1606 18.8116C70.9095 18.516 70.5938 18.2821 70.2379 18.1278C69.8821 17.9736 69.4955 17.9032 69.1082 17.922C68.7182 17.92 68.3319 17.9967 67.9723 18.1476C67.6126 18.2984 67.2872 18.5202 67.0153 18.7998C66.7435 19.0794 66.5309 19.411 66.3902 19.7747C66.2496 20.1384 66.1838 20.5268 66.1968 20.9165C66.1875 21.5003 66.3517 22.0737 66.6687 22.5639C66.9858 23.0542 67.4412 23.4393 67.9774 23.6704C68.5135 23.9015 69.1062 23.9682 69.6803 23.862C70.2544 23.7558 70.7841 23.4815 71.2021 23.0739C71.5868 22.6594 71.8098 22.1204 71.8305 21.5553H69.1082V20.6547H72.7409C72.7752 20.8413 72.7928 21.0306 72.7933 21.2204V21.2204Z" fill="white" stroke="white" stroke-width="0.208254" stroke-miterlimit="10"/>
<path d="M78.5527 18.0892H75.1385V20.4662H78.2172V21.3668H75.1385V23.7438H78.5527V24.6651H74.1758V17.168H78.5527V18.0892Z" fill="white" stroke="white" stroke-width="0.208254" stroke-miterlimit="10"/>
<path d="M82.6156 24.6651H81.6516V18.0892H79.5576V17.168H84.7095V18.0892H82.6156V24.6651Z" fill="white" stroke="white" stroke-width="0.208254" stroke-miterlimit="10"/>
<path d="M88.4364 24.665V17.1679H89.3991V24.665H88.4364Z" fill="white" stroke="white" stroke-width="0.208254" stroke-miterlimit="10"/>
<path d="M93.6721 24.6651H92.7081V18.0892H90.6143V17.168H95.766V18.0892H93.6721V24.6651Z" fill="white" stroke="white" stroke-width="0.208254" stroke-miterlimit="10"/>
<path d="M105.519 23.6962C104.79 24.4237 103.801 24.8322 102.771 24.8322C101.74 24.8322 100.752 24.4237 100.022 23.6962C99.6613 23.3305 99.3775 22.896 99.1878 22.4185C98.9981 21.941 98.9063 21.4302 98.918 20.9165C98.9063 20.4028 98.9981 19.892 99.1878 19.4145C99.3775 18.9369 99.6613 18.5024 100.022 18.1368C100.383 17.776 100.811 17.4899 101.283 17.2949C101.754 17.0998 102.259 16.9997 102.769 17.0001C103.28 17.0006 103.785 17.1016 104.256 17.2975C104.727 17.4934 105.155 17.7803 105.515 18.1417C105.876 18.5064 106.16 18.9399 106.351 19.4165C106.541 19.8932 106.634 20.4033 106.624 20.9165C106.635 21.4301 106.543 21.9408 106.353 22.4183C106.164 22.8958 105.88 23.3303 105.519 23.6962V23.6962ZM100.734 23.0684C101.274 23.6079 102.007 23.911 102.77 23.911C103.534 23.911 104.266 23.6079 104.807 23.0684C105.084 22.7847 105.301 22.4477 105.444 22.0778C105.587 21.7079 105.654 21.3129 105.64 20.9165C105.654 20.5201 105.587 20.125 105.444 19.7552C105.301 19.3853 105.084 19.0483 104.807 18.7646C104.266 18.225 103.534 17.922 102.77 17.922C102.007 17.922 101.274 18.225 100.734 18.7646C100.457 19.0485 100.24 19.3856 100.097 19.7554C99.9545 20.1252 99.8878 20.5202 99.9015 20.9165C99.8878 21.3128 99.9545 21.7077 100.097 22.0775C100.24 22.4474 100.457 22.7844 100.734 23.0684V23.0684Z" fill="white" stroke="white" stroke-width="0.208254" stroke-miterlimit="10"/>
<path d="M107.976 24.6651V17.168H109.148L112.792 23.0001H112.833L112.792 21.5553V17.168H113.756V24.6651H112.75L108.938 18.5504H108.897L108.938 19.9952V24.6651H107.976Z" fill="white" stroke="white" stroke-width="0.208254" stroke-miterlimit="10"/>
<path d="M98.68 35.6003C97.6298 35.6042 96.6043 35.9193 95.733 36.5057C94.8617 37.0921 94.1837 37.9234 93.7845 38.8949C93.3854 39.8663 93.283 40.9342 93.4903 41.9638C93.6977 42.9934 94.2054 43.9384 94.9495 44.6796C95.6935 45.4208 96.6405 45.925 97.6708 46.1284C98.7012 46.3318 99.7687 46.2254 100.739 45.8226C101.709 45.4197 102.537 44.7385 103.12 43.865C103.703 42.9915 104.015 41.9648 104.015 40.9146C104.025 40.2121 103.894 39.5148 103.629 38.864C103.364 38.2133 102.972 37.6224 102.474 37.1266C101.976 36.6308 101.384 36.2401 100.732 35.9779C100.08 35.7157 99.3824 35.5873 98.68 35.6003V35.6003ZM98.68 44.1354C98.0333 44.1816 97.3876 44.0319 96.827 43.7059C96.2665 43.3799 95.8171 42.8927 95.5374 42.3078C95.2576 41.7228 95.1605 41.0671 95.2586 40.4262C95.3566 39.7852 95.6454 39.1886 96.0873 38.7141C96.5292 38.2396 97.1037 37.9091 97.7361 37.7656C98.3685 37.6222 99.0293 37.6725 99.6327 37.9099C100.236 38.1473 100.754 38.5609 101.119 39.0968C101.484 39.6328 101.679 40.2662 101.679 40.9146C101.699 41.3242 101.636 41.7336 101.495 42.1188C101.354 42.5039 101.138 42.8569 100.858 43.157C100.579 43.4571 100.242 43.6983 99.8681 43.8664C99.494 44.0344 99.09 44.1259 98.68 44.1354V44.1354ZM87.0428 35.6003C85.9926 35.6042 84.967 35.9193 84.0957 36.5056C83.2244 37.092 82.5464 37.9234 82.1472 38.8948C81.748 39.8662 81.6456 40.9341 81.853 41.9637C82.0603 42.9933 82.568 43.9384 83.3121 44.6796C84.0561 45.4208 85.0031 45.925 86.0334 46.1284C87.0638 46.3318 88.1313 46.2254 89.1012 45.8226C90.0711 45.4197 90.8999 44.7386 91.483 43.865C92.0661 42.9915 92.3772 41.9648 92.3772 40.9146C92.3875 40.2121 92.2565 39.5148 91.9918 38.864C91.7271 38.2133 91.3342 37.6224 90.8365 37.1266C90.3388 36.6308 89.7465 36.2402 89.0948 35.9779C88.443 35.7157 87.7452 35.5873 87.0428 35.6003V35.6003ZM87.0428 44.1354C86.396 44.1816 85.7503 44.0319 85.1898 43.7059C84.6293 43.3799 84.1799 42.8927 83.9001 42.3078C83.6204 41.7228 83.5232 41.0671 83.6213 40.4262C83.7194 39.7852 84.0082 39.1886 84.4501 38.7141C84.892 38.2396 85.4665 37.9091 86.0989 37.7656C86.7312 37.6222 87.3921 37.6725 87.9955 37.9099C88.5989 38.1473 89.1168 38.5609 89.4818 39.0968C89.8469 39.6328 90.0421 40.2662 90.0421 40.9146C90.0618 41.3242 89.9993 41.7336 89.8583 42.1188C89.7173 42.5039 89.5006 42.8569 89.2212 43.157C88.9417 43.4572 88.605 43.6983 88.2308 43.8664C87.8567 44.0344 87.4528 44.1259 87.0428 44.1354ZM73.1997 37.2309V39.4854H78.5947C78.5168 40.5428 78.0841 41.543 77.3667 42.3238C76.826 42.8749 76.1759 43.3065 75.4581 43.5908C74.7404 43.8751 73.971 44.0058 73.1997 43.9744C71.6227 43.953 70.1176 43.3116 69.0101 42.189C67.9025 41.0663 67.2815 39.5526 67.2815 37.9756C67.2815 36.3985 67.9025 34.8849 69.0101 33.7622C70.1176 32.6395 71.6227 31.9981 73.1997 31.9768C74.7143 31.957 76.1756 32.5357 77.2661 33.5872L78.8563 31.9969C78.1123 31.2603 77.2287 30.6797 76.2574 30.2891C75.286 29.8985 74.2465 29.7057 73.1997 29.7222C72.1057 29.7062 71.0195 29.9079 70.0042 30.3156C68.9889 30.7232 68.0647 31.3286 67.2855 32.0966C66.5062 32.8646 65.8874 33.7798 65.4651 34.7891C65.0427 35.7983 64.8252 36.8815 64.8252 37.9756C64.8252 39.0697 65.0427 40.1528 65.4651 41.1621C65.8874 42.1714 66.5062 43.0866 67.2855 43.8546C68.0647 44.6226 68.9889 45.228 70.0042 45.6356C71.0195 46.0432 72.1057 46.2449 73.1997 46.229C74.2686 46.2733 75.3347 46.0899 76.3273 45.6907C77.3199 45.2916 78.2162 44.686 78.9569 43.914C80.2719 42.4787 80.9728 40.5856 80.9097 38.64C80.9148 38.1675 80.8743 37.6956 80.7887 37.2309H73.1997ZM129.813 38.9821C129.494 38.0195 128.886 37.1785 128.072 36.5735C127.258 35.9685 126.277 35.6287 125.264 35.6003C124.581 35.6045 123.906 35.7471 123.28 36.0196C122.654 36.292 122.089 36.6886 121.621 37.1854C121.152 37.6821 120.789 38.2687 120.554 38.9097C120.319 39.5506 120.216 40.2327 120.251 40.9146C120.236 41.6133 120.362 42.3079 120.621 42.957C120.88 43.6061 121.267 44.1963 121.759 44.6923C122.252 45.1884 122.839 45.5801 123.486 45.8441C124.133 46.1082 124.827 46.2391 125.525 46.229C126.401 46.2339 127.264 46.0212 128.037 45.6101C128.81 45.199 129.468 44.6024 129.954 43.8738L128.142 42.666C127.871 43.1168 127.487 43.4892 127.028 43.7468C126.569 44.0044 126.052 44.1383 125.525 44.1354C124.984 44.1562 124.449 44.0137 123.989 43.7265C123.53 43.4394 123.167 43.0208 122.949 42.5251L130.055 39.5861L129.813 38.9821ZM122.566 40.7536C122.541 40.3668 122.594 39.9789 122.72 39.6126C122.847 39.2463 123.045 38.9089 123.304 38.6203C123.563 38.3316 123.876 38.0974 124.227 37.9314C124.577 37.7654 124.957 37.671 125.344 37.6536C125.747 37.6271 126.149 37.7198 126.5 37.9203C126.851 38.1207 127.135 38.4201 127.317 38.7809L122.566 40.7536ZM116.789 45.9069H119.124V30.2859H116.789V45.9069ZM112.964 36.7879H112.884C112.529 36.4022 112.095 36.0967 111.613 35.8919C111.13 35.6871 110.609 35.5877 110.085 35.6003C108.715 35.6586 107.42 36.244 106.471 37.2342C105.522 38.2245 104.992 39.5431 104.992 40.9146C104.992 42.2862 105.522 43.6048 106.471 44.595C107.42 45.5853 108.715 46.1707 110.085 46.229C110.612 46.243 111.134 46.1422 111.618 45.9336C112.101 45.7251 112.533 45.4137 112.884 45.0212H112.964V45.7862C112.964 47.8194 111.877 48.9063 110.126 48.9063C109.542 48.8924 108.976 48.705 108.499 48.368C108.022 48.031 107.656 47.5596 107.448 47.0141L105.415 47.8596C105.798 48.7926 106.451 49.5899 107.291 50.1494C108.13 50.7089 109.117 51.005 110.126 50.9999C112.863 50.9999 115.178 49.3895 115.178 45.4641V35.9223H112.964V36.7879ZM110.287 44.1354C109.48 44.067 108.728 43.698 108.18 43.1016C107.632 42.5051 107.328 41.7246 107.328 40.9146C107.328 40.1046 107.632 39.3242 108.18 38.7277C108.728 38.1312 109.48 37.7623 110.287 37.6938C110.688 37.7134 111.082 37.8137 111.444 37.9886C111.806 38.1635 112.129 38.4095 112.394 38.712C112.659 39.0144 112.86 39.3671 112.985 39.7489C113.111 40.1308 113.159 40.5341 113.125 40.9347C113.156 41.3328 113.107 41.7332 112.98 42.1119C112.853 42.4905 112.651 42.8397 112.386 43.1385C112.121 43.4373 111.799 43.6796 111.438 43.8509C111.077 44.0222 110.686 44.119 110.287 44.1354V44.1354ZM140.751 30.2862H135.164V45.9069H137.496V39.9887H140.751C141.411 40.0248 142.071 39.9262 142.691 39.6987C143.311 39.4712 143.878 39.1197 144.357 38.6657C144.837 38.2117 145.219 37.6646 145.48 37.058C145.741 36.4514 145.876 35.7979 145.876 35.1374C145.876 34.477 145.741 33.8235 145.48 33.2169C145.219 32.6102 144.837 32.0632 144.357 31.6092C143.878 31.1551 143.311 30.8036 142.691 30.5762C142.071 30.3487 141.411 30.25 140.751 30.2862V30.2862ZM140.811 37.8148H137.496V32.4602H140.811C141.168 32.4528 141.522 32.5166 141.853 32.6479C142.184 32.7791 142.486 32.9751 142.741 33.2245C142.995 33.4738 143.198 33.7714 143.336 34.0999C143.474 34.4284 143.545 34.7812 143.545 35.1375C143.545 35.4938 143.474 35.8466 143.336 36.1751C143.198 36.5036 142.995 36.8012 142.741 37.0505C142.486 37.2999 142.184 37.4959 141.853 37.6271C141.522 37.7584 141.168 37.8222 140.811 37.8148V37.8148ZM155.22 35.5715C154.37 35.5218 153.523 35.7217 152.784 36.1465C152.045 36.5713 151.446 37.2026 151.06 37.963L153.13 38.8271C153.336 38.4497 153.646 38.1404 154.025 37.9369C154.403 37.7335 154.833 37.6447 155.261 37.6816C155.852 37.6238 156.442 37.8029 156.902 38.1796C157.361 38.5564 157.653 39.0999 157.712 39.6912V39.852C156.964 39.4542 156.129 39.2471 155.281 39.2491C153.05 39.2491 150.779 40.475 150.779 42.766C150.801 43.2488 150.919 43.7224 151.127 44.1585C151.336 44.5947 151.629 44.9846 151.991 45.3051C152.353 45.6256 152.775 45.8702 153.233 46.0244C153.691 46.1785 154.176 46.239 154.658 46.2024C155.245 46.237 155.83 46.1135 156.353 45.8449C156.877 45.5763 157.318 45.1723 157.632 44.6751H157.712V45.8809H159.963V39.8922C159.963 37.1189 157.893 35.5715 155.22 35.5715V35.5715ZM154.939 44.1324C154.175 44.1324 153.11 43.7507 153.11 42.8061C153.11 41.6004 154.437 41.1381 155.582 41.1381C156.326 41.1183 157.062 41.2988 157.712 41.6607C157.627 42.3382 157.299 42.9618 156.789 43.4162C156.279 43.8706 155.622 44.125 154.939 44.1324V44.1324ZM168.162 35.9131L165.49 42.6855H165.409L162.636 35.9131H160.124L164.284 45.3785L161.913 50.6437H164.344L170.755 35.9131H168.162ZM147.162 45.9069H149.493V30.2862H147.162V45.9069Z" fill="white"/>
<path d="M26.5828 17.8402C26.1731 18.3301 25.9662 18.9581 26.0045 19.5956V47.23C25.9661 47.8675 26.173 48.4956 26.5828 48.9855L26.6753 49.0756L42.1555 33.5954V33.2302L26.6753 17.7495L26.5828 17.8402Z" fill="url(#paint0_linear_25_11639)"/>
<path d="M47.315 38.7577L42.1553 33.5954V33.2302L47.3163 28.0692L47.4326 28.1356L53.5462 31.6093C55.2926 32.6015 55.2926 34.2248 53.5462 35.2176L47.4326 38.6913L47.315 38.7577Z" fill="url(#paint1_linear_25_11639)"/>
<path d="M47.4331 38.6908L42.1557 33.413L26.583 48.9856C26.9388 49.2994 27.3932 49.4788 27.8675 49.4929C28.3417 49.5069 28.8059 49.3545 29.1796 49.0623L47.4331 38.6908Z" fill="url(#paint2_linear_25_11639)"/>
<path d="M47.4331 28.135L29.1796 17.7635C28.8059 17.4712 28.3417 17.3189 27.8675 17.3329C27.3932 17.3469 26.9388 17.5264 26.583 17.8402L42.1557 33.4129L47.4331 28.135Z" fill="url(#paint3_linear_25_11639)"/>
<path opacity="0.2" d="M47.3167 38.5746L29.1796 48.8797C28.8203 49.1533 28.3817 49.3025 27.9301 49.3049C27.4785 49.3073 27.0383 49.1628 26.6761 48.8931L26.583 48.9862L26.6755 49.0763L26.6761 49.0756C27.0383 49.3455 27.4784 49.4901 27.9301 49.4877C28.3817 49.4853 28.8203 49.336 29.1796 49.0623L47.4331 38.6908L47.3167 38.5746Z" fill="black"/>
<path opacity="0.12" d="M26.5828 48.8037C26.1731 48.3137 25.9662 47.6857 26.0045 47.0482V47.2308C25.9662 47.8683 26.1731 48.4963 26.5828 48.9862L26.6759 48.8931L26.5828 48.8037Z" fill="black"/>
<path opacity="0.12" d="M53.5464 35.0344L47.3164 38.5746L47.4327 38.6908L53.5464 35.217C53.906 35.0609 54.2172 34.8113 54.4476 34.4941C54.6779 34.1769 54.8191 33.8037 54.8562 33.4135C54.7789 33.7669 54.6203 34.0974 54.3929 34.3788C54.1655 34.6602 53.8757 34.8847 53.5464 35.0344V35.0344Z" fill="black"/>
<path opacity="0.25" d="M29.1788 17.9467L53.5459 31.7913C53.8753 31.9411 54.1653 32.1656 54.3926 32.4471C54.62 32.7287 54.7786 33.0594 54.8557 33.4129C54.8188 33.0225 54.6778 32.6491 54.4474 32.3318C54.217 32.0144 53.9057 31.7647 53.5459 31.6088L29.1788 17.7641C27.4325 16.7719 26.0039 17.5961 26.0039 19.5963V19.7788C26.0039 17.7787 27.4325 16.9546 29.1788 17.9467Z" fill="white"/>
<defs>
<linearGradient id="paint0_linear_25_11639" x1="40.7827" y1="19.3042" x2="19.8129" y2="40.2741" gradientUnits="userSpaceOnUse">
<stop stop-color="#00A0FF"/>
<stop offset="0.00657" stop-color="#00A1FF"/>
<stop offset="0.2601" stop-color="#00BEFF"/>
<stop offset="0.5122" stop-color="#00D2FF"/>
<stop offset="0.7604" stop-color="#00DFFF"/>
<stop offset="1" stop-color="#00E3FF"/>
</linearGradient>
<linearGradient id="paint1_linear_25_11639" x1="55.8199" y1="33.4135" x2="25.5855" y2="33.4135" gradientUnits="userSpaceOnUse">
<stop stop-color="#FFE000"/>
<stop offset="0.4087" stop-color="#FFBD00"/>
<stop offset="0.7754" stop-color="#FFA500"/>
<stop offset="1" stop-color="#FF9C00"/>
</linearGradient>
<linearGradient id="paint2_linear_25_11639" x1="44.5655" y1="36.2807" x2="16.1286" y2="64.7176" gradientUnits="userSpaceOnUse">
<stop stop-color="#FF3A44"/>
<stop offset="1" stop-color="#C31162"/>
</linearGradient>
<linearGradient id="paint3_linear_25_11639" x1="22.6619" y1="8.64151" x2="35.3602" y2="21.3397" gradientUnits="userSpaceOnUse">
<stop stop-color="#32A071"/>
<stop offset="0.0685" stop-color="#2DA771"/>
<stop offset="0.4762" stop-color="#15CF74"/>
<stop offset="0.8009" stop-color="#06E775"/>
<stop offset="1" stop-color="#00F076"/>
</linearGradient>
</defs>
</svg>
