<svg width="158" height="48" viewBox="0 0 158 48" fill="none" xmlns="http://www.w3.org/2000/svg">
<rect width="48" height="48" rx="10.8679" fill="#F5F7FE"/>
<path d="M0 10.5C0 4.70101 4.70101 0 10.5 0H37.5C43.299 0 48 4.70101 48 10.5V37.5C48 43.299 43.299 48 37.5 48H10.5C4.70101 48 0 43.299 0 37.5V10.5Z" fill="white"/>
<path d="M20.8656 12.2191C23.4772 12.2191 26.0891 12.2245 28.7004 12.2172C30.5502 12.2121 32.2646 12.6711 33.8054 13.7014C35.8263 15.0536 37.113 16.9242 37.5879 19.3124C38.5191 23.9942 35.6474 28.5412 31.0287 29.7456C30.2757 29.9383 29.5011 30.0341 28.7239 30.0305C26.0266 30.0321 23.3296 30.0312 20.6327 30.0278C20.5045 30.0278 20.4562 30.0656 20.4238 30.1868C20.0461 31.5846 19.6718 32.9829 19.2816 34.377C19.0325 35.2675 18.5176 35.9421 17.6112 36.2389C17.3459 36.3217 17.0696 36.3638 16.7917 36.3636C15.4524 36.3758 14.1126 36.3598 12.7733 36.375C12.3918 36.3793 12.2166 36.1237 12.3076 35.7594C12.6263 34.4809 12.9625 33.2069 13.2928 31.9313C14.0025 29.1895 14.7126 26.4476 15.423 23.7058C15.5039 23.3944 15.5849 23.3293 15.9087 23.3293H28.8275C29.9015 23.3293 30.7974 22.6164 31.0381 21.5705C31.3169 20.3618 30.4444 19.1057 29.2155 18.9464C29.0775 18.9287 28.9386 18.9197 28.7994 18.9195C24.8618 18.9176 20.9241 18.9232 16.9865 18.9127C16.0393 18.91 15.1067 18.7756 14.23 18.3827C13.0286 17.843 12.3159 16.9331 12.1449 15.6176C12.1161 15.404 12.1005 15.1889 12.0979 14.9735C12.0922 14.2227 12.0955 13.472 12.096 12.7216C12.096 12.3799 12.2579 12.2175 12.5993 12.2175L20.8656 12.2191Z" fill="#6376F5"/>
<text fill="white" xml:space="preserve" style="white-space: pre" font-family="Inter" font-size="27.5" font-style="italic" font-weight="bold" letter-spacing="0em"><tspan x="89.2539" y="34">luto</tspan></text>
<path d="M74.0114 14.0016C76.1735 14.0016 78.3359 14.0061 80.4977 14C82.0292 13.9958 83.4485 14.3758 84.7241 15.2288C86.3972 16.3482 87.4624 17.8969 87.8556 19.874C88.6266 23.7501 86.2491 27.5145 82.4253 28.5116C81.8019 28.6711 81.1607 28.7504 80.5172 28.7475C78.2842 28.7488 76.0513 28.7481 73.8186 28.7452C73.7125 28.7452 73.6725 28.7765 73.6457 28.8768C73.3329 30.0341 73.023 31.1918 72.7 32.3459C72.4938 33.0831 72.0675 33.6416 71.3171 33.8874C71.0975 33.9559 70.8687 33.9907 70.6386 33.9906C69.5299 34.0006 68.4207 33.9874 67.3119 34C66.996 34.0035 66.851 33.792 66.9263 33.4904C67.1902 32.4319 67.4685 31.3772 67.742 30.3211C68.3295 28.0512 68.9174 25.7812 69.5055 23.5113C69.5726 23.2535 69.6396 23.1996 69.9077 23.1996H80.603C81.4921 23.1996 82.2338 22.6094 82.4331 21.7435C82.6639 20.7429 81.9416 19.7029 80.9242 19.5711C80.81 19.5564 80.6949 19.5489 80.5797 19.5488C77.3198 19.5472 74.0599 19.5519 70.7999 19.5432C70.0158 19.5409 69.2437 19.4297 68.5179 19.1044C67.5233 18.6576 66.9332 17.9043 66.7916 16.8152C66.7678 16.6384 66.7548 16.4603 66.7527 16.2819C66.748 15.6604 66.7507 15.0389 66.7512 14.4176C66.7512 14.1347 66.8852 14.0003 67.1678 14.0003L74.0114 14.0016Z" fill="white"/>
</svg>
